<svg class="logo" xmlns="http://www.w3.org/2000/svg" viewBox="0 0 750 197.8"><path class="st0" d="M112.6 35.6L72.1 159.3c-4.2-18.9-10.8-48.8-12.7-55.5-3.3-12.2-6.2-23.6-16.4-21.6-8.4 1.6-12.2 12-15 24.1-.5 2.2-4.9 20.8-7.9 33.5l-9.6-35.5L0 111s9 33.9 10.1 38.3c1.9 7.7 5.3 12.8 9.8 14.7 4 1.6 9.6-1.7 11.7-7.8 1.1-3.1 6.4-21.8 10.7-36.9 4.1 20 9.8 47.6 10.9 51.9 3 12.3 7.6 21.6 16 25.5C81 200 87.1 195.6 92 186c7.2-13.8 75.2-186 75.2-186l-54.6 35.6zM266 91.8l-14 45.8-15.1-46h-12.8l-15.1 46-14-45.8h-15.9l23 68h13l15.2-44.2 15.2 44.2h13l23-68zm41-.5l-28.9 68h15.1l6.2-15.1H328l6.2 15.1h15.5l-28.9-68H307zm-2.3 39.8l9-21.9 9 21.9h-18zm41.9-39.3v13.7h20.5v53.8H382v-53.8h30.3v53.8h14.9v-53.8h20.5V91.8H346.6zM485 118.9c-11.7-3-14.6-4.4-14.6-8.9v-.2c0-3.3 3-5.9 8.7-5.9s11.6 2.5 17.6 6.7l7.7-11.2c-7.1-5.7-16-8.7-25.1-8.6-13.8 0-23.6 8.1-23.6 20.4v.2c0 13.4 8.8 17.2 22.4 20.6 11.3 2.9 13.6 4.8 13.6 8.6v.2c0 4-3.7 6.4-9.7 6.4-7.7 0-14.1-3.2-20.2-8.2l-8.8 10.5c7.9 7 18.1 10.8 28.7 10.8 14.6 0 24.8-7.5 24.8-20.9v-.2c0-11.8-7.8-16.7-21.5-20.3zm35.1-27.1H535v67.5h-14.9zm63.7 41.5h15v9.7c-4.1 2.8-9 4.2-14 4.1-12 0-20.5-9.1-20.5-21.4v-.2c0-11.5 8.6-21 19.4-21 7.8 0 12.4 2.5 17.7 6.8l9.4-11.3c-7-6-14.4-9.3-26.5-9.3-20.5 0-35.4 15.7-35.4 34.9v.2c0 20 14.5 34.7 35.5 34.7 10.6 0 20.8-3.8 28.8-10.7v-29.4h-29.4v12.9zm85.9-14.8h-27.4V91.8h-14.8v67.6h14.8v-27.2h27.4v27.2h14.9V91.8h-14.9zM694 91.8v13.7h20.6v53.9h14.9v-53.9H750V91.8z"/></svg>